<svg xmlns="http://www.w3.org/2000/svg" width="500" height="500" style="width:100%;height:100%"><defs><clipPath id="b"><path d="M0 0h500v500H0z"/></clipPath><filter id="a" filterUnits="objectBoundingBox" x="0%" y="0%" width="100%" height="100%"><feComponentTransfer in="SourceGraphic"><feFuncA type="table" tableValues="1.0 0.0"/></feComponentTransfer></filter><mask id="c"><g filter="url(#a)"><g display="block"><path stroke-linecap="round" stroke-linejoin="round" fill-opacity="0" stroke="#F47513" stroke-width="0" d="M327 354.547c0-30.406 24.649-55.055 55.055-55.055s55.055 24.649 55.055 55.055-24.649 55.055-55.055 55.055S327 384.953 327 354.547z"/><path fill="red" d="M-55.055 0c0-30.406 24.649-55.055 55.055-55.055S55.055-30.406 55.055 0 30.406 55.055 0 55.055-55.055 30.406-55.055 0z" transform="translate(382.055 354.547)"/><g><path stroke-linecap="round" stroke-linejoin="round" fill-opacity="0" stroke="#F47513" stroke-width="0" d="M382.055 327.91v53.274"/><path fill="red" d="M0-26.637v53.274" transform="translate(382.055 354.547)"/><g><path stroke-linecap="round" stroke-linejoin="round" fill-opacity="0" stroke="#F47513" stroke-width="0" d="M408.692 354.547h-53.274"/><path fill="red" d="M26.637 0h-53.274" transform="translate(382.055 354.547)"/></g></g></g></g></mask></defs><g clip-path="url(#b)"><path stroke-linecap="round" stroke-linejoin="round" stroke="#121331" stroke-width="12.04" d="M305.301 242.105c0-10.562-8.563-19.125-19.125-19.125s-19.125 8.563-19.125 19.125 8.563 19.125 19.125 19.125 19.125-8.563 19.125-19.125z" fill="none" display="block"/><g mask="url(#c)" display="block"><path stroke-linecap="round" stroke-linejoin="round" stroke="#121331" stroke-width="12.04" d="M104.035 133.102h291.93c7.817 0 14.154 6.337 14.154 14.154v222.022c0 7.817-6.337 14.154-14.154 14.154h-291.93c-7.817 0-14.154-6.337-14.154-14.154V147.256c0-7.817 6.337-14.154 14.154-14.154zM410.119 178.763H89.881M362.206 150.076v-33.508M137.793 150.076v-33.508M250 150.076v-33.508" fill="none"/><path stroke-linecap="round" stroke-linejoin="round" stroke="#121331" stroke-width="12.04" d="M160.598 242.105c0 10.562-8.563 19.125-19.125 19.125s-19.125-8.563-19.125-19.125 8.563-19.125 19.125-19.125 19.125 8.563 19.125 19.125z" fill="none"/><path stroke-linecap="round" stroke-linejoin="round" stroke="#F47513" stroke-width="12.04" d="M232.949 242.105c0 10.562-8.563 19.125-19.125 19.125s-19.125-8.563-19.125-19.125 8.563-19.125 19.125-19.125 19.125 8.563 19.125 19.125z" fill="none"/><g><path stroke-linecap="round" stroke-linejoin="round" stroke="#121331" stroke-width="12.04" d="M377.652 242.105c0 10.562-8.563 19.125-19.125 19.125s-19.125-8.563-19.125-19.125 8.563-19.125 19.125-19.125 19.125 8.563 19.125 19.125z" fill="none"/></g><g><path stroke-linecap="round" stroke-linejoin="round" stroke="#F47513" stroke-width="12.04" d="M160.598 320.091c0 10.562-8.563 19.125-19.125 19.125s-19.125-8.563-19.125-19.125 8.563-19.125 19.125-19.125 19.125 8.563 19.125 19.125z" fill="none"/></g><g><path stroke-linecap="round" stroke-linejoin="round" stroke="#121331" stroke-width="12.04" d="M232.949 320.091c0 10.562-8.563 19.125-19.125 19.125s-19.125-8.563-19.125-19.125 8.563-19.125 19.125-19.125 19.125 8.563 19.125 19.125z" fill="none"/></g><g><path stroke-linecap="round" stroke-linejoin="round" stroke="#121331" stroke-width="12.04" d="M305.301 320.091c0 10.562-8.563 19.125-19.125 19.125s-19.125-8.563-19.125-19.125 8.563-19.125 19.125-19.125 19.125 8.563 19.125 19.125z" fill="none"/></g></g><g display="block"><path stroke-linecap="round" stroke-linejoin="round" stroke="#F47513" stroke-width="12.04" d="M327 354.547c0-30.406 24.649-55.055 55.055-55.055s55.055 24.649 55.055 55.055-24.649 55.055-55.055 55.055S327 384.953 327 354.547zM382.055 327.91v53.274M408.692 354.547h-53.274" fill="none"/></g></g></svg>